<svg width="910" height="345" viewBox="0 0 910 345" fill="none" xmlns="http://www.w3.org/2000/svg">
<path d="M1 121.29C1 121.29 90.8978 107.554 114.093 59.476C136.275 13.3882 227.652 1 227.652 1" stroke="#404040" stroke-width="2" stroke-miterlimit="10"/>
<path d="M1 144.398C1 144.398 111.29 128.544 139.7 70.5166C166.786 15.1213 278.789 1 278.789 1" stroke="#404040" stroke-width="2" stroke-miterlimit="10"/>
<path d="M1 167.57C1 167.57 131.605 149.533 165.229 81.6855C197.297 16.7905 329.926 1 329.926 1" stroke="#404040" stroke-width="2" stroke-miterlimit="10"/>
<path d="M1 190.679C1 190.679 151.998 170.523 190.837 92.7262C227.808 18.5236 381.063 1 381.063 1" stroke="#404040" stroke-width="2" stroke-miterlimit="10"/>
<path d="M1 213.787C1 213.787 172.39 191.513 216.444 103.831C258.318 20.2568 432.122 1 432.122 1" stroke="#404040" stroke-width="2" stroke-miterlimit="10"/>
<path d="M1 236.959C1 236.959 192.705 212.567 241.974 114.935C288.907 21.9255 483.258 1 483.258 1" stroke="#404040" stroke-width="2" stroke-miterlimit="10"/>
<path d="M1 260.067C1 260.067 213.097 233.492 267.581 126.04C319.418 23.6586 534.395 1 534.395 1" stroke="#404040" stroke-width="2" stroke-miterlimit="10"/>
<path d="M1 283.175C1 283.175 233.49 254.482 293.11 137.081C349.929 25.3917 585.532 1 585.532 1" stroke="#404040" stroke-width="2" stroke-miterlimit="10"/>
<path d="M1 306.347C1 306.347 253.804 275.537 318.718 148.249C380.44 27.0604 636.591 1 636.591 1" stroke="#404040" stroke-width="2" stroke-miterlimit="10"/>
<path d="M1 329.454C1 329.454 274.197 296.527 344.247 159.354C410.951 28.7936 687.728 1 687.728 1" stroke="#404040" stroke-width="2" stroke-miterlimit="10"/>
<path d="M1 352.626C1 352.626 294.589 317.516 369.855 170.459C441.462 30.5267 738.864 1 738.864 1" stroke="#404040" stroke-width="2" stroke-miterlimit="10"/>
<path d="M1 375.736C1 375.736 314.904 338.506 395.384 181.564C471.972 32.1959 790 1 790 1" stroke="#404040" stroke-width="2" stroke-miterlimit="10"/>
<path d="M1 398.841C1 398.841 335.296 359.496 420.991 192.604C502.483 33.929 841.137 1 841.137 1" stroke="#404040" stroke-width="2" stroke-miterlimit="10"/>
<path d="M1 422.014C1 422.014 355.689 380.486 446.599 203.773C532.994 35.6621 892.197 1 892.197 1" stroke="#404040" stroke-width="2" stroke-miterlimit="10"/>
<path d="M1 445.124C1 445.124 376.003 401.476 472.128 214.814C563.505 37.3308 943.334 1 943.334 1" stroke="#404040" stroke-width="2" stroke-miterlimit="10"/>
<path d="M1 468.234C1 468.234 396.396 422.466 497.735 225.918C594.016 39.064 994.471 1 994.471 1" stroke="#404040" stroke-width="2" stroke-miterlimit="10"/>
<path d="M1 491.406C1 491.406 416.788 443.518 523.265 237.023C624.527 40.7971 1045.61 1 1045.61 1" stroke="#404040" stroke-width="2" stroke-miterlimit="10"/>
<path d="M1 514.512C1 514.512 437.103 464.445 548.872 248.128C655.038 42.4658 1096.67 1 1096.67 1" stroke="#404040" stroke-width="2" stroke-miterlimit="10"/>
</svg>
