<svg width="1036" height="549" viewBox="0 0 1036 549" fill="none" xmlns="http://www.w3.org/2000/svg">
<path d="M0 128.313C0 128.313 84.92 113.66 106.83 62.3759C127.785 13.2144 214.102 0 214.102 0" stroke="#404040" stroke-width="2" stroke-miterlimit="10"/>
<path d="M0 152.961C0 152.961 104.184 136.05 131.02 74.1528C156.606 15.0631 262.407 0 262.407 0" stroke="#404040" stroke-width="2" stroke-miterlimit="10"/>
<path d="M0 177.679C0 177.679 123.373 158.439 155.136 86.0666C185.428 16.8436 310.713 0 310.713 0" stroke="#404040" stroke-width="2" stroke-miterlimit="10"/>
<path d="M0 202.329C0 202.329 142.637 180.829 179.325 97.8435C214.249 18.6923 359.018 0 359.018 0" stroke="#404040" stroke-width="2" stroke-miterlimit="10"/>
<path d="M0 226.978C0 226.978 161.9 203.219 203.515 109.689C243.07 20.541 407.25 0 407.25 0" stroke="#404040" stroke-width="2" stroke-miterlimit="10"/>
<path d="M0 251.695C0 251.695 181.09 225.677 227.631 121.534C271.965 22.321 455.555 0 455.555 0" stroke="#404040" stroke-width="2" stroke-miterlimit="10"/>
<path d="M0 276.344C0 276.344 200.353 247.998 251.82 133.379C300.787 24.1697 503.86 0 503.86 0" stroke="#404040" stroke-width="2" stroke-miterlimit="10"/>
<path d="M0 300.994C0 300.994 219.617 270.387 275.936 145.156C329.608 26.0184 552.166 0 552.166 0" stroke="#404040" stroke-width="2" stroke-miterlimit="10"/>
<path d="M0 325.712C0 325.712 238.806 292.846 300.125 157.07C358.43 27.7985 600.398 0 600.398 0" stroke="#404040" stroke-width="2" stroke-miterlimit="10"/>
<path d="M0 350.359C0 350.359 258.07 315.236 324.241 168.915C387.251 29.6472 648.703 0 648.703 0" stroke="#404040" stroke-width="2" stroke-miterlimit="10"/>
<path d="M0 375.077C0 375.077 277.333 337.625 348.431 180.76C416.073 31.4959 697.008 0 697.008 0" stroke="#404040" stroke-width="2" stroke-miterlimit="10"/>
<path d="M0 399.728C0 399.728 296.523 360.015 372.547 192.606C444.894 33.2764 745.312 0 745.312 0" stroke="#404040" stroke-width="2" stroke-miterlimit="10"/>
<path d="M0 424.374C0 424.374 315.786 382.405 396.736 204.382C473.716 35.1251 793.617 0 793.617 0" stroke="#404040" stroke-width="2" stroke-miterlimit="10"/>
<path d="M0 449.092C0 449.092 335.049 404.795 420.925 216.296C502.537 36.9738 841.851 0 841.851 0" stroke="#404040" stroke-width="2" stroke-miterlimit="10"/>
<path d="M0 473.743C0 473.743 354.239 427.184 445.041 228.073C531.359 38.7538 890.156 0 890.156 0" stroke="#404040" stroke-width="2" stroke-miterlimit="10"/>
<path d="M0 498.394C0 498.394 373.503 449.574 469.231 239.918C560.18 40.6026 938.461 0 938.461 0" stroke="#404040" stroke-width="2" stroke-miterlimit="10"/>
<path d="M0 523.112C0 523.112 392.766 472.03 493.346 251.764C589.001 42.4513 986.767 0 986.767 0" stroke="#404040" stroke-width="2" stroke-miterlimit="10"/>
<path d="M0 547.759C0 547.759 411.956 494.353 517.536 263.609C617.823 44.2312 1035 0 1035 0" stroke="#404040" stroke-width="2" stroke-miterlimit="10"/>
</svg>
